<svg width="15" height="20" viewBox="0 0 15 20" fill="none" xmlns="http://www.w3.org/2000/svg">
<path d="M0.573599 19.5598C0.206324 19.2778 0 18.8954 0 18.4967C0 18.098 0.206324 17.7157 0.573599 17.4337L10.2711 9.99092L0.573599 2.54815C0.216732 2.26457 0.0192661 1.88476 0.0237293 1.49052C0.0281935 1.09629 0.23423 0.719168 0.597463 0.44039C0.960696 0.161613 1.45206 0.00348282 1.96573 5.72205e-05C2.4794 -0.00336838 2.97428 0.148186 3.34377 0.422075L14.4264 8.92789C14.7937 9.20985 15 9.59222 15 9.99092C15 10.3896 14.7937 10.772 14.4264 11.054L3.34377 19.5598C2.97638 19.8416 2.47817 20 1.95868 20C1.4392 20 0.940984 19.8416 0.573599 19.5598Z" fill="white"/>
</svg>
