<svg width="26" height="32" viewBox="0 0 26 32" fill="none" xmlns="http://www.w3.org/2000/svg">
<path d="M25.5 20.375C25.5 19.3804 25.1049 18.4266 24.4017 17.7234C23.6984 17.0201 22.7446 16.625 21.75 16.625H4.25C3.25544 16.625 2.30161 17.0201 1.59835 17.7234C0.895088 18.4266 0.5 19.3804 0.5 20.375V21.625C0.5 26.5525 5.15 31.625 13 31.625C20.85 31.625 25.5 26.5525 25.5 21.625V20.375ZM3 20.375C3 20.0435 3.1317 19.7255 3.36612 19.4911C3.60054 19.2567 3.91848 19.125 4.25 19.125H21.75C22.0815 19.125 22.3995 19.2567 22.6339 19.4911C22.8683 19.7255 23 20.0435 23 20.375V21.625C23 25.22 19.42 29.125 13 29.125C6.58 29.125 3 25.22 3 21.625V20.375ZM19.875 7.25001C19.8751 5.76788 19.3962 4.3254 18.5097 3.13759C17.6233 1.94978 16.3767 1.08026 14.9558 0.658626C13.5349 0.236995 12.0158 0.285837 10.6249 0.797871C9.23401 1.30991 8.04584 2.25771 7.2375 3.50001H3C2.66848 3.50001 2.35054 3.63171 2.11612 3.86613C1.8817 4.10055 1.75 4.41849 1.75 4.75001V9.75001C1.75 9.79001 1.75 9.82751 1.755 9.86501H1.75V12.25C1.75 13.2446 2.14509 14.1984 2.84835 14.9017C3.55161 15.6049 4.50544 16 5.5 16H6.4675C6.72514 15.9998 6.97859 15.9347 7.2044 15.8107C7.43021 15.6866 7.6211 15.5076 7.75943 15.2903C7.89775 15.0729 7.97904 14.8242 7.99578 14.5671C8.01253 14.31 7.96418 14.0528 7.85521 13.8194C7.74625 13.5859 7.58018 13.3837 7.37236 13.2314C7.16455 13.0791 6.92169 12.9817 6.66624 12.9481C6.4108 12.9145 6.15101 12.9459 5.9109 13.0393C5.67078 13.1327 5.4581 13.2851 5.2925 13.4825C5.00108 13.4335 4.73647 13.2827 4.54562 13.0571C4.35477 12.8315 4.25004 12.5455 4.25 12.25V11H4.875C5.6175 11 6.31 10.7825 6.8925 10.41C7.6001 11.7791 8.74718 12.8707 10.1496 13.5097C11.5521 14.1487 13.1285 14.2979 14.6259 13.9334C16.1234 13.5689 17.4549 12.7119 18.4068 11.4999C19.3587 10.2878 19.8758 8.79115 19.875 7.25001ZM8.625 7.25001C8.625 6.08969 9.08594 4.97689 9.90641 4.15642C10.7269 3.33595 11.8397 2.87501 13 2.87501C14.1603 2.87501 15.2731 3.33595 16.0936 4.15642C16.9141 4.97689 17.375 6.08969 17.375 7.25001C17.375 8.41033 16.9141 9.52313 16.0936 10.3436C15.2731 11.1641 14.1603 11.625 13 11.625C11.8397 11.625 10.7269 11.1641 9.90641 10.3436C9.08594 9.52313 8.625 8.41033 8.625 7.25001ZM6.125 7.25001C6.125 7.58153 5.9933 7.89947 5.75888 8.13389C5.52446 8.36831 5.20652 8.50001 4.875 8.50001H4.25V6.00001H6.125V7.25001Z" fill="white"/>
</svg>
