<svg width="40" height="40" viewBox="0 0 40 40" fill="none" xmlns="http://www.w3.org/2000/svg">
<path d="M6.09749 15.0406C6.65534 15.041 7.19025 15.2627 7.58471 15.6572C7.97916 16.0516 8.20091 16.5865 8.20124 17.1444C8.20124 18.3044 7.25749 19.2463 6.09749 19.2463C4.93749 19.2463 3.995 18.3038 3.995 17.1438C3.995 16.586 4.21647 16.0511 4.61073 15.6566C5.00499 15.2621 5.53976 15.0403 6.09749 15.04V15.0406ZM20.0387 3.33313C20.4021 3.33313 20.7618 3.40469 21.0975 3.54372C21.4331 3.68275 21.7381 3.88654 21.995 4.14344C22.2519 4.40034 22.4557 4.70532 22.5947 5.04097C22.7337 5.37663 22.8053 5.73638 22.8053 6.09969C22.8053 6.463 22.7337 6.82276 22.5947 7.15841C22.4557 7.49406 22.2519 7.79905 21.995 8.05595C21.7381 8.31285 21.4331 8.51663 21.0975 8.65566C20.7618 8.7947 20.4021 8.86625 20.0387 8.86625C19.6757 8.86634 19.3161 8.7949 18.9807 8.65601C18.6452 8.51712 18.3404 8.31351 18.0836 8.05681C17.8269 7.80011 17.6232 7.49534 17.4842 7.1599C17.3453 6.82447 17.2737 6.46496 17.2737 6.10188C17.2734 5.36811 17.5645 4.66424 18.083 4.14504C18.6015 3.62583 19.305 3.33379 20.0387 3.33313ZM4.80062 12.275L5.23062 12.9588C5.70673 12.6597 6.28201 12.5616 6.83032 12.686C7.37864 12.8104 7.85524 13.1472 8.15562 13.6225L8.8375 13.1913C8.42293 12.5353 7.76517 12.0705 7.00844 11.8987C6.25171 11.727 5.45775 11.8623 4.80062 12.275ZM6.74 9.02375L7.005 9.78563C7.53619 9.601 8.11895 9.63473 8.62529 9.87941C9.13164 10.1241 9.52019 10.5597 9.70562 11.0906L10.4669 10.825C10.2104 10.0927 9.67414 9.49203 8.97555 9.1545C8.27695 8.81698 7.47303 8.77018 6.74 9.02438V9.02375ZM9.36124 6.29188L9.44874 7.09438C10.0078 7.03457 10.5678 7.19868 11.0061 7.55079C11.4444 7.9029 11.7254 8.41433 11.7875 8.97313L12.5887 8.885C12.5034 8.1138 12.1158 7.40788 11.511 6.92184C10.9062 6.4358 10.1334 6.20928 9.36187 6.29188H9.36124ZM12.4344 5.02063C12.9927 5.08792 13.5015 5.3739 13.8493 5.81585C14.197 6.25781 14.3553 6.81964 14.2894 7.37813L15.0906 7.47313C15.1812 6.70249 14.9627 5.92736 14.4828 5.31758C14.003 4.7078 13.301 4.31311 12.5306 4.22L12.4344 5.02126V5.02063ZM25.2869 3.98688C25.6154 4.44294 25.7499 5.0106 25.6609 5.5656C25.5719 6.1206 25.2666 6.61771 24.8119 6.94813L25.2844 7.6025C25.9121 7.14664 26.3336 6.4606 26.4566 5.69461C26.5796 4.92862 26.3941 4.14511 25.9406 3.51563L25.2869 3.98688ZM28.5656 5.55688C28.7832 6.07499 28.7866 6.65822 28.575 7.17881C28.3635 7.69941 27.9542 8.11494 27.4369 8.33438L27.7506 9.07813C28.4647 8.77541 29.0297 8.20203 29.3218 7.48357C29.614 6.76512 29.6095 5.96016 29.3094 5.245L28.5656 5.5575V5.55688ZM31.4075 7.8225C31.5033 8.37673 31.3754 8.94633 31.0518 9.40634C30.7281 9.86636 30.2353 10.1792 29.6812 10.2763L29.8187 11.0706C30.5832 10.9368 31.2634 10.5053 31.7102 9.87078C32.157 9.23626 32.3341 8.45046 32.2025 7.68563L31.4075 7.82313V7.8225ZM31.4325 12.6731L31.3887 13.4781C32.1636 13.5194 32.9232 13.2518 33.5012 12.734C34.0791 12.2162 34.4281 11.4904 34.4719 10.7156L33.6656 10.6713C33.6343 11.2328 33.3816 11.759 32.9628 12.1344C32.544 12.5098 31.9935 12.7038 31.4319 12.6738L31.4325 12.6731ZM33.58 19.5113C32.41 19.5113 31.4612 18.57 31.4612 17.41C31.4612 16.2494 32.4094 15.3088 33.58 15.3088C34.7487 15.3088 35.6987 16.2494 35.6987 17.41C35.6987 18.57 34.7487 19.5113 33.58 19.5113ZM35.8156 23.1019L36.6081 23.1031L38.2294 28.7644C38.3544 29.1988 38.8394 29.4375 39.3131 29.3019C39.7881 29.1663 40.0881 28.7513 39.9281 28.2081L38.2612 22.4006C37.595 20.0788 35.6512 20.1513 35.6512 20.1513H31.5094C31.5094 20.1513 29.5675 20.0788 28.8994 22.4006L27.2312 28.2081C27.0725 28.7513 27.3725 29.1663 27.8475 29.3019C28.3212 29.4375 28.8062 29.1988 28.9294 28.7644L30.5519 23.1031L31.3431 23.1019L29.1775 30.6544H37.9837L35.8169 23.1019H35.8156ZM6.05374 22.2981C6.81249 22.2981 7.25875 22.0206 7.275 19.9231H4.86624C4.88374 22.0206 5.28999 22.2981 6.05374 22.2981Z" fill="white"/>
<path d="M8.91752 23.2556H9.68627V29.1288C9.68627 29.6375 10.0975 30.0513 10.6038 30.0513C10.7242 30.0509 10.8434 30.0268 10.9545 29.9801C11.0656 29.9335 11.1663 29.8653 11.2509 29.7796C11.3355 29.6938 11.4023 29.5921 11.4474 29.4804C11.4925 29.3687 11.5151 29.2492 11.5138 29.1288V22.6144C11.5138 21.1281 10.295 19.9231 8.80877 19.9231H7.85752C7.85752 21.97 7.26002 22.8369 6.37877 22.8369V25.2038C6.63877 25.3144 6.82252 25.5738 6.82252 25.8738C6.82252 26.2763 6.50002 26.6075 6.09752 26.6075C5.69377 26.6075 5.37252 26.2875 5.37252 25.8838C5.37252 25.5819 5.55377 25.325 5.81377 25.2138V22.845C4.88877 22.845 4.31877 21.8994 4.31877 19.9231H3.41377C1.92627 19.9231 0.600647 21.1281 0.600647 22.6144V29.1288C0.600647 29.6375 0.999397 30.0506 1.50815 30.0506C2.01565 30.0506 2.42815 29.6375 2.42815 29.1288V23.2556H3.1894V30.6544H8.91752V23.2556ZM24.2619 13.4231H23.5619V35.2506C23.5619 36.1125 22.8631 36.8106 22.0006 36.8106C21.1381 36.8106 20.44 36.1125 20.44 35.2506V21.7319H19.64V35.2506C19.6285 35.6572 19.4589 36.0433 19.1673 36.3268C18.8756 36.6103 18.4849 36.7689 18.0781 36.7689C17.6714 36.7689 17.2807 36.6103 16.989 36.3268C16.6974 36.0433 16.5278 35.6572 16.5163 35.2506V13.4231H15.8138L15.8125 21.4725C15.8125 21.7884 15.687 22.0914 15.4636 22.3148C15.2402 22.5382 14.9372 22.6638 14.6213 22.6638C14.3053 22.6638 14.0023 22.5382 13.7789 22.3148C13.5555 22.0914 13.43 21.7884 13.43 21.4725V12.5725C13.43 10.6125 14.8325 9.5025 16.7531 9.5025H23.3238C25.2438 9.5025 26.6469 10.6131 26.6469 12.5725V21.4725C26.6469 21.7884 26.5214 22.0914 26.298 22.3148C26.0746 22.5382 25.7716 22.6638 25.4556 22.6638C25.1397 22.6638 24.8367 22.5382 24.6133 22.3148C24.3899 22.0914 24.2644 21.7884 24.2644 21.4725L24.2606 13.4231H24.2619Z" fill="#F8F8F8"/>
</svg>
