<svg width="34" height="31" viewBox="0 0 34 31" fill="none" xmlns="http://www.w3.org/2000/svg">
<path d="M0.333313 4.00001C0.333313 3.11595 0.684502 2.2681 1.30962 1.64298C1.93474 1.01786 2.78259 0.666672 3.66665 0.666672H30.3333C31.2174 0.666672 32.0652 1.01786 32.6903 1.64298C33.3155 2.2681 33.6666 3.11595 33.6666 4.00001V22.3333C33.6666 23.2174 33.3155 24.0652 32.6903 24.6904C32.0652 25.3155 31.2174 25.6667 30.3333 25.6667H22.69L18.1783 30.1783C17.8658 30.4908 17.4419 30.6663 17 30.6663C16.558 30.6663 16.1342 30.4908 15.8216 30.1783L11.31 25.6667H3.66665C2.78259 25.6667 1.93474 25.3155 1.30962 24.6904C0.684502 24.0652 0.333313 23.2174 0.333313 22.3333V4.00001ZM30.3333 4.00001H3.66665V22.3333H12C12.442 22.3334 12.8658 22.5091 13.1783 22.8217L17 26.6433L20.8216 22.8217C21.1341 22.5091 21.558 22.3334 22 22.3333H30.3333V4.00001Z" fill="white"/>
<path d="M19.5 13.1667C19.5 13.8297 19.2366 14.4656 18.7677 14.9344C18.2989 15.4033 17.663 15.6667 17 15.6667C16.3369 15.6667 15.7011 15.4033 15.2322 14.9344C14.7634 14.4656 14.5 13.8297 14.5 13.1667C14.5 12.5036 14.7634 11.8677 15.2322 11.3989C15.7011 10.9301 16.3369 10.6667 17 10.6667C17.663 10.6667 18.2989 10.9301 18.7677 11.3989C19.2366 11.8677 19.5 12.5036 19.5 13.1667ZM26.1666 13.1667C26.1666 13.8297 25.9033 14.4656 25.4344 14.9344C24.9656 15.4033 24.3297 15.6667 23.6666 15.6667C23.0036 15.6667 22.3677 15.4033 21.8989 14.9344C21.43 14.4656 21.1666 13.8297 21.1666 13.1667C21.1666 12.5036 21.43 11.8677 21.8989 11.3989C22.3677 10.9301 23.0036 10.6667 23.6666 10.6667C24.3297 10.6667 24.9656 10.9301 25.4344 11.3989C25.9033 11.8677 26.1666 12.5036 26.1666 13.1667ZM12.8333 13.1667C12.8333 13.8297 12.5699 14.4656 12.1011 14.9344C11.6322 15.4033 10.9964 15.6667 10.3333 15.6667C9.67027 15.6667 9.03439 15.4033 8.56555 14.9344C8.0967 14.4656 7.83331 13.8297 7.83331 13.1667C7.83331 12.5036 8.0967 11.8677 8.56555 11.3989C9.03439 10.9301 9.67027 10.6667 10.3333 10.6667C10.9964 10.6667 11.6322 10.9301 12.1011 11.3989C12.5699 11.8677 12.8333 12.5036 12.8333 13.1667Z" fill="white"/>
</svg>
