<svg width="34" height="34" viewBox="0 0 34 34" fill="none" xmlns="http://www.w3.org/2000/svg">
<path d="M17 32C25.2843 32 32 25.2843 32 17C32 8.71573 25.2843 2 17 2C8.71573 2 2 8.71573 2 17C2 25.2843 8.71573 32 17 32Z" stroke="white" stroke-width="3.125" stroke-linecap="round" stroke-linejoin="round"/>
<path d="M17 23.6667H17.0167V23.6833H17V23.6667Z" stroke="white" stroke-width="4.6875" stroke-linejoin="round"/>
<path d="M14.6433 9.64331C15.2933 8.99331 16.1433 8.66831 16.9933 8.66665C17.4323 8.66504 17.8672 8.75054 18.2728 8.91818C18.6785 9.08583 19.0469 9.3323 19.3566 9.64331C20.0066 10.2933 20.3333 11.1466 20.3333 12C20.3341 12.4378 20.2482 12.8715 20.0806 13.276C19.913 13.6805 19.6669 14.0477 19.3566 14.3566C19.0468 14.6675 18.6784 14.9139 18.2727 15.0815C17.8671 15.2492 17.4322 15.3347 16.9933 15.3333L17 17" stroke="white" stroke-width="3.125" stroke-linecap="round" stroke-linejoin="round"/>
</svg>
