<svg width="29" height="29" viewBox="0 0 29 29" fill="none" xmlns="http://www.w3.org/2000/svg">
<path d="M29 26.2578L20.518 17.7744C21.8849 15.896 22.6202 13.6321 22.618 11.309C22.618 5.22842 17.6708 0.28125 11.5902 0.28125C5.50967 0.28125 0.5625 5.22842 0.5625 11.309C0.5625 17.3896 5.50967 22.3367 11.5902 22.3367C13.9134 22.339 16.1772 21.6036 18.0557 20.2367L26.5391 28.7188L29 26.2578ZM11.5902 18.8538C10.0978 18.8539 8.63888 18.4115 7.39792 17.5824C6.15696 16.7534 5.18973 15.5749 4.61854 14.1962C4.04735 12.8174 3.89787 11.3002 4.18899 9.83641C4.48012 8.37266 5.19877 7.02812 6.25407 5.97282C7.30937 4.91752 8.65391 4.19887 10.1177 3.90774C11.5814 3.61662 13.0986 3.7661 14.4774 4.33729C15.8562 4.90848 17.0346 5.87571 17.8637 7.11667C18.6928 8.35763 19.1352 9.81657 19.1351 11.309C19.1327 13.3093 18.3371 15.227 16.9226 16.6414C15.5082 18.0558 13.5905 18.8515 11.5902 18.8538Z" fill="#888888"/>
</svg>
