<svg width="70" height="70" viewBox="0 0 70 70" fill="none" xmlns="http://www.w3.org/2000/svg">
<path d="M11.6667 52.5C11.6667 49.4058 12.8958 46.4384 15.0837 44.2505C17.2717 42.0625 20.2391 40.8334 23.3333 40.8334H46.6666C49.7608 40.8334 52.7283 42.0625 54.9162 44.2505C57.1041 46.4384 58.3333 49.4058 58.3333 52.5C58.3333 54.0471 57.7187 55.5309 56.6248 56.6248C55.5308 57.7188 54.0471 58.3334 52.5 58.3334H17.5C15.9529 58.3334 14.4692 57.7188 13.3752 56.6248C12.2812 55.5309 11.6667 54.0471 11.6667 52.5Z" stroke="white" stroke-width="3.125" stroke-linejoin="round"/>
<path d="M35 29.1667C39.8325 29.1667 43.75 25.2492 43.75 20.4167C43.75 15.5842 39.8325 11.6667 35 11.6667C30.1675 11.6667 26.25 15.5842 26.25 20.4167C26.25 25.2492 30.1675 29.1667 35 29.1667Z" stroke="white" stroke-width="3.125"/>
</svg>
